<svg width="381" height="77" viewBox="0 0 381 77" fill="none" xmlns="http://www.w3.org/2000/svg">
<path d="M47.67 73.4152L86.68 71.8652C87.72 71.8252 87.78 71.5585 86.86 71.0652C67.15 60.5852 61.71 35.5252 73.4 17.2852C85.04 -0.864803 109.82 -4.77481 127.29 5.82519C140.56 13.8752 147.63 29.7352 144.55 45.2252C142.477 55.6852 136.833 63.9185 127.62 69.9252C127.28 70.1452 127.313 70.2485 127.72 70.2352L164.92 68.7652C165.46 68.7385 165.517 68.5619 165.09 68.2352C151.94 58.1652 146.38 40.8252 152.33 24.8852C164.74 -8.3548 213.67 -8.3648 225.8 25.2752C231.02 39.7652 226.83 55.9352 215.44 66.0652C214.893 66.5585 214.987 66.7885 215.72 66.7552L232.39 66.0652C232.81 66.0519 232.857 65.9118 232.53 65.6452L229.81 63.4252C229.763 63.3887 229.725 63.3432 229.696 63.2913C229.667 63.2394 229.649 63.1821 229.643 63.1226C229.636 63.0632 229.641 63.0028 229.658 62.9449C229.675 62.887 229.703 62.8327 229.74 62.7852L238.03 52.4052C238.062 52.3646 238.102 52.3309 238.147 52.3062C238.193 52.2816 238.243 52.2664 238.294 52.2617C238.346 52.257 238.398 52.2629 238.447 52.279C238.496 52.2951 238.541 52.321 238.58 52.3552C246.46 59.2352 255.09 63.5552 265.89 62.7652C270.99 62.3852 277.6 60.1852 278.15 54.3452C278.7 48.4752 273.44 45.9552 268.6 45.1252C257.827 43.2919 250.83 41.9852 247.61 41.2052C237.59 38.7752 231.56 31.2752 232.28 20.8152C233.27 6.29519 246.65 0.275196 259.88 0.0651958C271.293 -0.114804 281.747 3.17186 291.24 9.9252C291.64 10.2052 291.697 10.5419 291.41 10.9352L283.91 21.3352C283.857 21.4078 283.79 21.4688 283.713 21.5148C283.636 21.5608 283.55 21.5907 283.461 21.6028C283.371 21.615 283.28 21.609 283.192 21.5854C283.104 21.5617 283.022 21.5209 282.95 21.4652C275.017 15.2385 266.61 12.4519 257.73 13.1052C253.27 13.4252 247.43 15.4452 246.94 20.5752C246.42 25.9652 251.01 28.1652 255.5 28.8852C262.353 29.9719 268.727 31.0852 274.62 32.2252C283.26 33.8952 291.31 39.1252 292.87 48.3052C293.81 53.8985 292.96 58.9185 290.32 63.3652C290.294 63.4075 290.28 63.4562 290.28 63.5058C290.28 63.5554 290.294 63.6041 290.32 63.6465C290.346 63.6888 290.383 63.7233 290.427 63.746C290.471 63.7687 290.521 63.7788 290.57 63.7752L319.05 62.6452C319.477 62.6252 319.69 62.4052 319.69 61.9852V15.2052C319.69 14.8185 319.497 14.6219 319.11 14.6152L295.52 14.6052C295.027 14.6052 294.78 14.3585 294.78 13.8652L294.79 1.7852C294.79 1.31186 295.027 1.07519 295.5 1.07519H359.24C359.573 1.07519 359.74 1.2452 359.74 1.5852V14.0752C359.74 14.4352 359.563 14.6152 359.21 14.6152H335.46C335.338 14.6152 335.221 14.6637 335.135 14.7499C335.048 14.8362 335 14.9532 335 15.0752L335.01 61.3052C335.01 61.7719 335.243 61.9985 335.71 61.9852L364.75 60.8252C365.097 60.8119 365.27 60.6319 365.27 60.2852V1.54519C365.27 1.23186 365.427 1.07519 365.74 1.07519L380.09 1.0852C380.49 1.0852 380.69 1.28519 380.69 1.68519V75.5552C380.69 75.8819 380.523 76.0452 380.19 76.0452C258.03 76.0719 135.873 76.1119 13.72 76.1652C9.36001 76.1652 4.97668 75.9119 0.570011 75.4052C0.412027 75.3856 0.266724 75.3096 0.161659 75.1917C0.0565943 75.0737 -0.000924892 74.922 1.12496e-05 74.7652V1.51519C1.12496e-05 1.18853 0.166678 1.0252 0.500011 1.0252C8.71334 1.13187 17.6367 1.12186 27.27 0.995188C33.2633 0.921855 38.04 1.17853 41.6 1.76519C52.12 3.49519 60.54 11.6752 59.6 23.0452C59.16 28.3519 56.36 32.8319 51.2 36.4852C50.8333 36.7452 50.8567 36.9685 51.27 37.1552C52.54 37.7352 53.75 38.5152 54.83 39.3852C68.03 49.8452 62.6 67.9752 47.61 73.0952C46.9033 73.3419 46.9233 73.4485 47.67 73.4152ZM15.39 14.0752V30.9152C15.39 30.9921 15.4206 31.0659 15.4749 31.1202C15.5293 31.1746 15.6031 31.2052 15.68 31.2052H34.33C37.0193 31.2052 39.5985 30.3234 41.5001 28.7537C43.4017 27.184 44.47 25.0551 44.47 22.8352V22.1552C44.47 19.9353 43.4017 17.8064 41.5001 16.2367C39.5985 14.667 37.0193 13.7852 34.33 13.7852H15.68C15.6031 13.7852 15.5293 13.8157 15.4749 13.8701C15.4206 13.9245 15.39 13.9983 15.39 14.0752ZM106.25 62.0152C112.445 62.0152 118.387 59.4824 122.768 54.974C127.149 50.4657 129.61 44.351 129.61 37.9752C129.61 31.5994 127.149 25.4847 122.768 20.9763C118.387 16.468 112.445 13.9352 106.25 13.9352C100.055 13.9352 94.1128 16.468 89.732 20.9763C85.3511 25.4847 82.89 31.5994 82.89 37.9752C82.89 44.351 85.3511 50.4657 89.732 54.974C94.1128 59.4824 100.055 62.0152 106.25 62.0152ZM189 62.0152C195.193 62.0152 201.132 59.4824 205.511 54.974C209.89 50.4657 212.35 44.351 212.35 37.9752C212.35 31.5994 209.89 25.4847 205.511 20.9763C201.132 16.468 195.193 13.9352 189 13.9352C182.807 13.9352 176.868 16.468 172.489 20.9763C168.11 25.4847 165.65 31.5994 165.65 37.9752C165.65 44.351 168.11 50.4657 172.489 54.974C176.868 59.4824 182.807 62.0152 189 62.0152ZM15.37 43.5252L15.43 61.8852C15.43 61.9595 15.4595 62.0307 15.512 62.0832C15.5645 62.1357 15.6357 62.1652 15.71 62.1652L36.2 62.0952C39.0022 62.0858 41.6866 61.1282 43.663 59.433C45.6395 57.7379 46.7462 55.4438 46.74 53.0552V52.1552C46.7369 50.9715 46.4603 49.8002 45.9259 48.7082C45.3914 47.6162 44.6097 46.6249 43.6253 45.7909C42.6409 44.957 41.4732 44.2967 40.1888 43.8479C38.9044 43.3991 37.5286 43.1705 36.14 43.1752L15.65 43.2452C15.5758 43.2452 15.5045 43.2747 15.452 43.3272C15.3995 43.3797 15.37 43.4509 15.37 43.5252Z" fill="#0D0D0D"/>
</svg>
